# xmcd CD database file
#
# Track frame offsets:
#	150
#	18741
#	34534
#	51911
#	67522
#	87294
#	102655
#	117030
#	134902
#	148011
#	167492
#	186265
#
# Disc length: 2710 seconds
#
# Revision: 0
# Processed by: cddbd v1.5.2PL0 Copyright (c) Steve Scherf et al.
# Submitted via: CDex 1.79
#
DISCID=a60a940c
DTITLE=Jack Jezzro - Guitar By CandleLight
DYEAR=2015
DGENRE=Jazz
TTITLE0=I Got It Bad and That Ain't Good
TTITLE1=Make Someone Happy
TTITLE2=Solitude
TTITLE3=Autumn Leaves
TTITLE4=Cheek To Cheek
TTITLE5=I've Grown Accustomed To Her Face
TTITLE6=Lady Be Good
TTITLE7=Darn That Dream
TTITLE8=Moonglow
TTITLE9=Body and Soul
TTITLE10=Sweet Lorraine
TTITLE11=The Nearness of You
EXTD=YEAR: 2015
EXTT0=
EXTT1=
EXTT2=
EXTT3=
EXTT4=
EXTT5=
EXTT6=
EXTT7=
EXTT8=
EXTT9=
EXTT10=
EXTT11=
PLAYORDER=
